<svg version="1.1" id="Layer_1" xmlns:x="ns_extend;" xmlns:i="ns_ai;" xmlns:graph="ns_graphs;" xmlns="http://www.w3.org/2000/svg" xmlns:xlink="http://www.w3.org/1999/xlink" x="0px" y="0px" viewBox="0 0 28 53" style="enable-background:new 0 0 28 53;" xml:space="preserve">
 <style type="text/css">
  .st0{fill:#FF3407;}
 </style>
 <metadata>
  <sfw xmlns="ns_sfw;">
   <slices>
   </slices>
   <sliceSourceBounds bottomLeftOrigin="true" height="53" width="28" x="116.7" y="-8.2">
   </sliceSourceBounds>
  </sfw>
 </metadata>
 <g>
  <path class="st0" d="M24.3,29.1h-0.9l1.7-1.4c1.2-1,1.7-2.5,1.2-4c-0.5-1.5-1.8-2.4-3.4-2.4H7.9c-0.3,0-0.4-0.3-0.2-0.5l9.9-9.7
		c0.1-0.1,0.3,0,0.3,0.2l-3.4,8h4.4L27.1,0h-4L3.5,19.3c-1.1,1.1-1.4,2.7-0.7,4.1c0.6,1.3,1.9,2.1,3.4,2.1h14.5
		c0.3,0,0.4,0.4,0.2,0.6l-3.4,2.8c-0.5,0.4-0.9,0.9-1.1,1.5L15,33.2h7.1c0.3,0,0.4,0.4,0.2,0.6l-14.6,12c-0.1,0.1-0.3,0-0.2-0.2
		l5.3-12.4l0.5-1.1l2-4.7h-4.4L0,53h5.4l21.2-17.5c1.2-1,1.6-2.6,1.1-4C27.2,30,25.8,29.1,24.3,29.1L24.3,29.1z">
  </path>
 </g>
</svg>