<svg width="129" height="30" viewBox="0 0 129 30" fill="none" xmlns="http://www.w3.org/2000/svg">
    <path d="M27.745 14.467c0 .868-.79 1.603-1.759 1.603h-2.369v-3.18h2.372c.966 0 1.756.708 1.756 1.577zm12.277 6.316a11.17 11.17 0 0 1-3.343 6.51A9.784 9.784 0 0 1 29.99 30H9.547c-2.205 0-4.37-.887-6.096-2.458a10.765 10.765 0 0 1-3.27-5.839c-.636-3.172.342-7.42 3.902-9.934a8.46 8.46 0 0 1 1.603-5.19 9.712 9.712 0 0 1 7.742-3.986 8.876 8.876 0 0 1 3.215.576A9.763 9.763 0 0 1 23.907 0a10.943 10.943 0 0 1 8.42 3.977 10.277 10.277 0 0 1 2.203 5.96c4.532 2.377 6.034 7.114 5.492 10.846zM20.04 11.995a1.045 1.045 0 0 0-1.043-1.045h-.115a1.045 1.045 0 0 0-1.043 1.045v3.578h-4.073v-3.578a1.045 1.045 0 0 0-1.043-1.045h-.115a1.045 1.045 0 0 0-1.043 1.045v9.58a1.043 1.043 0 0 0 1.043 1.043h.115a1.043 1.043 0 0 0 1.043-1.043v-4.13h4.073v4.13a1.044 1.044 0 0 0 1.043 1.043h.115a1.043 1.043 0 0 0 1.043-1.043v-9.58zm7.708 5.55a3.485 3.485 0 0 0 1.932-3.084c0-1.932-1.653-3.502-3.684-3.502h-3.717a1.042 1.042 0 0 0-.857 1.027v9.58a1.043 1.043 0 0 0 1.044 1.043h.114a1.041 1.041 0 0 0 1.043-1.043V17.94h2.011l2.217 4.195a.967.967 0 0 0 1.788-.206.973.973 0 0 0-.069-.673l-1.822-3.712zM57.224 10.921v12.875h-2.59v-5.599h-5.506v5.6h-2.57V10.92h2.57v5.216h5.507V10.92h2.59zM65.898 23.796l-3.003-5.015h-1.13v5.015h-2.57V10.921H64.1c1.496 0 2.638.365 3.426 1.095.788.73 1.18 1.69 1.177 2.88a3.714 3.714 0 0 1-.812 2.445c-.54.656-1.32 1.094-2.343 1.313l3.21 5.139-2.86.003zm-4.14-6.784h2.115c1.471 0 2.207-.65 2.208-1.951 0-.62-.18-1.103-.538-1.45-.358-.345-.915-.516-1.67-.513h-2.108l-.007 3.914zM82.754 12.034c1.058.826 1.757 1.95 2.096 3.373h-2.698a3.535 3.535 0 0 0-1.305-1.641 3.685 3.685 0 0 0-2.124-.601 3.359 3.359 0 0 0-3.119 1.97 5.614 5.614 0 0 0 0 4.43 3.359 3.359 0 0 0 3.12 1.97 3.684 3.684 0 0 0 2.123-.6 3.54 3.54 0 0 0 1.305-1.643h2.698a5.853 5.853 0 0 1-2.096 3.374c-1.057.824-2.388 1.236-3.995 1.236a6.302 6.302 0 0 1-3.254-.829 5.651 5.651 0 0 1-2.189-2.326 7.252 7.252 0 0 1-.774-3.39 7.29 7.29 0 0 1 .774-3.411 5.68 5.68 0 0 1 2.174-2.323 6.298 6.298 0 0 1 3.264-.829c1.61 0 2.942.414 4 1.24zM89.363 10.301v13.495h-2.569V10.301h2.57zM98.647 14.186a4.54 4.54 0 0 1 1.85 1.796c.468.845.704 1.798.685 2.763a5.43 5.43 0 0 1-.685 2.76 4.612 4.612 0 0 1-1.852 1.794 5.9 5.9 0 0 1-5.31 0 4.598 4.598 0 0 1-1.846-1.794 5.406 5.406 0 0 1-.675-2.755 5.449 5.449 0 0 1 .675-2.762 4.527 4.527 0 0 1 1.851-1.797 5.995 5.995 0 0 1 5.31 0l-.003-.005zm-4.478 2.362c-.499.504-.748 1.237-.746 2.197 0 .96.25 1.693.746 2.198a2.569 2.569 0 0 0 3.647 0c.498-.505.747-1.238.748-2.198.002-.96-.248-1.693-.748-2.197a2.571 2.571 0 0 0-3.647 0zM112.298 13.694V23.8h-2.569v-2.045a3.214 3.214 0 0 1-1.323 1.594 3.92 3.92 0 0 1-2.124.576c-1.168 0-2.098-.383-2.79-1.15-.692-.766-1.038-1.836-1.039-3.21v-5.87h2.553v5.583c0 .8.207 1.422.62 1.869a2.177 2.177 0 0 0 1.677.666 2.296 2.296 0 0 0 1.77-.713c.437-.475.656-1.155.656-2.041v-5.365h2.569zM120.403 14.167c.593.392 1.049.96 1.303 1.623v-5.48h2.554v13.495h-2.554v-2.13a3.45 3.45 0 0 1-1.303 1.633 3.79 3.79 0 0 1-2.179.611 4.351 4.351 0 0 1-2.299-.62 4.19 4.19 0 0 1-1.594-1.794 6.226 6.226 0 0 1-.576-2.763 6.225 6.225 0 0 1 .576-2.763 4.184 4.184 0 0 1 1.594-1.797 4.351 4.351 0 0 1 2.299-.62c.77-.022 1.53.189 2.179.605zm-3.309 2.425c-.487.524-.73 1.24-.73 2.153s.243 1.626.73 2.143c.486.517 1.13.774 1.932.774a2.547 2.547 0 0 0 1.925-.793c.503-.53.755-1.238.755-2.124 0-.886-.252-1.6-.755-2.143a2.546 2.546 0 0 0-1.925-.793 2.509 2.509 0 0 0-1.932.783zM125.541 11.41a1.705 1.705 0 0 1 .228-.847 1.73 1.73 0 0 1 .603-.604 1.656 1.656 0 0 1 1.29-.169 1.644 1.644 0 0 1 .741.434 1.669 1.669 0 0 1 0 2.37 1.646 1.646 0 0 1-1.186.491 1.652 1.652 0 0 1-.845-.229 1.711 1.711 0 0 1-.603-.601 1.714 1.714 0 0 1-.168-.4c-.04-.142-.06-.29-.06-.445zm.23 0a1.496 1.496 0 0 0 .195.746 1.483 1.483 0 0 0 .516.526c.107.063.223.112.347.147a1.471 1.471 0 0 0 1.416-.377c.132-.133.235-.288.31-.466a1.46 1.46 0 0 0 .115-.576 1.48 1.48 0 0 0-.053-.394 1.445 1.445 0 0 0-.372-.655 1.442 1.442 0 0 0-1.595-.314 1.416 1.416 0 0 0-.459.317 1.478 1.478 0 0 0-.42 1.046zm1.115.207v.813h-.358v-2.048h.661c.263 0 .458.048.585.145.127.095.191.235.191.422a.56.56 0 0 1-.124.367.638.638 0 0 1-.365.21.253.253 0 0 1 .067.056c.02.023.038.05.055.08l.523.768h-.34c-.05 0-.088-.02-.112-.058l-.461-.693a.147.147 0 0 0-.051-.046.178.178 0 0 0-.087-.016h-.184zm0-.262h.266a.85.85 0 0 0 .214-.023.361.361 0 0 0 .142-.07.246.246 0 0 0 .078-.113.428.428 0 0 0 .026-.154.45.45 0 0 0-.023-.15.221.221 0 0 0-.072-.105.316.316 0 0 0-.128-.062.823.823 0 0 0-.2-.02h-.303v.697z" fill="#00C4C9"/>
</svg>
